<svg xmlns="http://www.w3.org/2000/svg" viewBox="0 0 64 64" width="64" height="64">
  <defs>
    <linearGradient id="tile" x1="0" y1="0" x2="1" y2="1">
      <stop offset="0" stop-color="#1E40C8"/>
      <stop offset="1" stop-color="#4C1D95"/>
    </linearGradient>
    <radialGradient id="light" cx="0.25" cy="0.15" r="0.8">
      <stop offset="0" stop-color="#5EEAFF" stop-opacity="0.28"/>
      <stop offset="1" stop-color="#5EEAFF" stop-opacity="0"/>
    </radialGradient>
    <linearGradient id="c" x1="0" y1="0" x2="0" y2="1">
      <stop offset="0" stop-color="#7DF9FF"/>
      <stop offset="0.55" stop-color="#A9CBFF"/>
      <stop offset="1" stop-color="#F1E6FF"/>
    </linearGradient>
  </defs>
  <rect x="0" y="0" width="64" height="64" rx="14" fill="url(#tile)"/>
  <rect x="0" y="0" width="64" height="64" rx="14" fill="url(#light)"/>
  <path d="M 48.35 18.78 A 22 22 0 1 0 48.35 48.22 A 5 5 0 0 0 40.92 41.53 A 12 12 0 1 1 40.92 25.47 A 5 5 0 0 0 48.35 18.78 Z" fill="#0A0F3A" fill-opacity="0.28"/>
  <path d="M 48.35 17.28 A 22 22 0 1 0 48.35 46.72 A 5 5 0 0 0 40.92 40.03 A 12 12 0 1 1 40.92 23.97 A 5 5 0 0 0 48.35 17.28 Z" fill="url(#c)"/>
</svg>
